<svg xmlns="http://www.w3.org/2000/svg" xmlns:xlink="http://www.w3.org/1999/xlink" width="475.586" height="912" viewBox="0 0 475.586 912">
  <defs>
    <filter id="Rectángulo_258" x="27.586" y="0" width="448" height="871" filterUnits="userSpaceOnUse">
      <feOffset dy="3" input="SourceAlpha"/>
      <feGaussianBlur stdDeviation="3" result="blur"/>
      <feFlood flood-opacity="0.361"/>
      <feComposite operator="in" in2="blur"/>
      <feComposite in="SourceGraphic"/>
    </filter>
    <clipPath id="clip-path">
      <rect id="Rectángulo_250" data-name="Rectángulo 250" width="210.907" height="138.592" fill="#545454"/>
    </clipPath>
    <clipPath id="clip-path-2">
      <rect id="Rectángulo_250-2" data-name="Rectángulo 250" width="114.167" height="75.022" fill="#545454"/>
    </clipPath>
  </defs>
  <g id="FONDO" transform="translate(36.586 -20)">
    <g transform="matrix(1, 0, 0, 1, -36.59, 20)" filter="url(#Rectángulo_258)">
      <rect id="Rectángulo_258-2" data-name="Rectángulo 258" width="430" height="853" transform="translate(36.59 6)" fill="#fff"/>
    </g>
    <g id="FONDO_SIN_BG" data-name="FONDO SIN BG" transform="translate(0 -12.556)" opacity="0.12" style="isolation: isolate">
      <path id="_633323e19d3c2db1649d6b7fd6883936" data-name="633323e19d3c2db1649d6b7fd6883936" d="M178.916,54a2.984,2.984,0,0,0-2.849,2.1L164.133,94.887a2.984,2.984,0,0,0,2.849,3.863H175.7l-2.739,35.573a2.984,2.984,0,0,0,5.431,1.917l32.817-47.734a2.984,2.984,0,0,0-2.459-4.673H198.657l12.761-25.516A2.984,2.984,0,0,0,208.749,54Z" transform="translate(197.322 -58.151) rotate(19)" fill="#545454" fill-rule="evenodd"/>
      <path id="_633323e19d3c2db1649d6b7fd6883936-2" data-name="633323e19d3c2db1649d6b7fd6883936" d="M178.916,54a2.984,2.984,0,0,0-2.849,2.1L164.133,94.887a2.984,2.984,0,0,0,2.849,3.863H175.7l-2.739,35.573a2.984,2.984,0,0,0,5.431,1.917l32.817-47.734a2.984,2.984,0,0,0-2.459-4.673H198.657l12.761-25.516A2.984,2.984,0,0,0,208.749,54Z" transform="translate(68.546 682.701) rotate(19)" fill="#545454" fill-rule="evenodd"/>
      <path id="_7f25f5b1d61903b17c4fef2baa20ecb4" data-name="7f25f5b1d61903b17c4fef2baa20ecb4" d="M23.745,56.587A6,6,0,0,1,21.971,52.3a6.08,6.08,0,0,1,6.07-6.07H62.918a6.07,6.07,0,1,1,0,12.14H52.93v7.8a29.1,29.1,0,0,0-14.9,0v-7.8H28.041A6.008,6.008,0,0,1,23.745,56.587ZM45.484,85.328a9.359,9.359,0,1,0,9.359,9.359A9.372,9.372,0,0,0,45.484,85.328ZM66.3,79.443h6.892v30.488H66.281a25.762,25.762,0,0,1-41.584,0h-6.92V79.443h6.9a25.8,25.8,0,0,1,41.621,0ZM58.538,94.687a13.059,13.059,0,1,0-13.054,13.054A13.071,13.071,0,0,0,58.538,94.687ZM8.529,74.011H5.757A5.556,5.556,0,0,0,.214,79.563v30.248a5.556,5.556,0,0,0,5.543,5.553H8.529a5.563,5.563,0,0,0,5.553-5.553V79.563A5.564,5.564,0,0,0,8.529,74.011Zm76.673,0H82.439a5.557,5.557,0,0,0-5.553,5.553v30.248a5.557,5.557,0,0,0,5.553,5.553H85.2a5.563,5.563,0,0,0,5.553-5.553V79.563A5.564,5.564,0,0,0,85.2,74.011Z" transform="matrix(0.985, -0.174, 0.174, 0.985, -3.289, 142.332)" fill="#545454"/>
      <path id="_7f25f5b1d61903b17c4fef2baa20ecb4-2" data-name="7f25f5b1d61903b17c4fef2baa20ecb4" d="M17.111,53.667a4.308,4.308,0,0,1-1.274-3.078A4.366,4.366,0,0,1,20.2,46.23H45.24a4.359,4.359,0,1,1,0,8.717H38.069v5.6a20.9,20.9,0,0,0-10.7,0v-5.6H20.2A4.314,4.314,0,0,1,17.111,53.667Zm15.61,20.639a6.72,6.72,0,1,0,6.72,6.72A6.73,6.73,0,0,0,32.722,74.306ZM47.669,70.08h4.949V91.973H47.655a18.5,18.5,0,0,1-29.861,0H12.826V70.08h4.956a18.526,18.526,0,0,1,29.887,0ZM42.1,81.026A9.377,9.377,0,1,0,32.722,90.4,9.386,9.386,0,0,0,42.1,81.026ZM6.185,66.179H4.195A3.989,3.989,0,0,0,.214,70.166v21.72a3.989,3.989,0,0,0,3.981,3.987h1.99a4,4,0,0,0,3.987-3.987V70.166A4,4,0,0,0,6.185,66.179Zm55.057,0H59.259a3.991,3.991,0,0,0-3.987,3.987v21.72a3.991,3.991,0,0,0,3.987,3.987h1.984a4,4,0,0,0,3.987-3.987V70.166A4,4,0,0,0,61.242,66.179Z" transform="translate(344.792 440.841) rotate(18)" fill="#545454"/>
      <path id="Unión_6" data-name="Unión 6" d="M9.662,91.989V83.938H78.342v8.051Zm0-9.987A10.495,10.495,0,0,1,0,71.573V25.853A10.495,10.495,0,0,1,10.465,15.391H16.55V8.34H13.826a4.17,4.17,0,0,1,0-8.34H74.177a4.17,4.17,0,0,1,0,8.34h-2.72v7.051h6.081A10.495,10.495,0,0,1,88,25.853V71.573A10.5,10.5,0,0,1,78.342,82Zm61.8-66.611h-.007Zm-26.012,0h23.1V8.34h-49.1v7.051h23.1V13.863H40.108a1.453,1.453,0,1,1,0-2.906h7.775a1.453,1.453,0,0,1,0,2.906H45.445ZM13.617,3.969a.273.273,0,0,0-.086.206.3.3,0,0,0,.086.206.284.284,0,0,0,.206.086H74.174a.3.3,0,0,0,.206-.086.278.278,0,0,0,.086-.206.313.313,0,0,0-.086-.206.278.278,0,0,0-.206-.086H13.823A.3.3,0,0,0,13.617,3.969Z" transform="matrix(0.995, 0.105, -0.105, 0.995, 275.481, 250.946)" fill="#545454"/>
      <path id="Unión_7" data-name="Unión 7" d="M5.993,57.056V52.062h42.6v4.993Zm0-6.194A6.509,6.509,0,0,1,0,44.393V16.035A6.509,6.509,0,0,1,6.491,9.546h3.774V5.173H8.576A2.586,2.586,0,0,1,8.576,0H46.008a2.586,2.586,0,0,1,0,5.173H44.321V9.546h3.772a6.509,6.509,0,0,1,6.489,6.489V44.393a6.51,6.51,0,0,1-5.99,6.468ZM44.321,9.546h0Zm-16.134,0H42.512V5.173H12.061V9.546H26.386V8.6h-1.51a.9.9,0,1,1,0-1.8H29.7a.9.9,0,0,1,0,1.8H28.187ZM8.446,2.462a.169.169,0,0,0-.054.128.184.184,0,0,0,.054.128.176.176,0,0,0,.128.054H46.006a.188.188,0,0,0,.128-.054.173.173,0,0,0,.054-.128.194.194,0,0,0-.054-.128.173.173,0,0,0-.128-.054H8.574A.188.188,0,0,0,8.446,2.462Z" transform="translate(14.493 51.691) rotate(-20)" fill="#545454"/>
      <path id="_7fb4b857906cb71143c4ee57f284c507" data-name="7fb4b857906cb71143c4ee57f284c507" d="M41.5,969.029c-1.744,0-2.069,3.858-2.069,6.894v13.792c0,14.005,13.79,21.116,27.581,20.686v55.161c-6.9-13.79-27.581-34.476-48.267-27.582,0,0,17.239,41.372,51.714,41.372s51.714-41.372,51.714-41.372c-20.686-6.894-41.371,13.792-48.267,27.582V1010.4c13.792.427,27.581-6.68,27.581-20.686V975.923c0-3.037-.323-6.894-2.069-6.894-1.331,0-2.934,1.556-4.827,3.447L84.254,982.819,73.911,971.183c-1.079-1.215-1.7-2.155-3.447-2.155s-2.368.94-3.447,2.155L56.674,982.819,46.331,972.476C44.438,970.584,42.835,969.029,41.5,969.029Z" transform="translate(-124.999 -137.021) rotate(-7)" fill="#545454"/>
      <path id="_7fb4b857906cb71143c4ee57f284c507-2" data-name="7fb4b857906cb71143c4ee57f284c507" d="M35.02,969.029c-1.247,0-1.479,2.759-1.479,4.93v9.861c0,10.014,9.86,15.1,19.721,14.791v39.442c-4.931-9.86-19.721-24.651-34.512-19.721,0,0,12.326,29.582,36.977,29.582S92.7,1018.33,92.7,1018.33c-14.791-4.93-29.581,9.861-34.512,19.721V998.61c9.861.305,19.721-4.777,19.721-14.791v-9.861c0-2.171-.231-4.93-1.479-4.93-.951,0-2.1,1.112-3.452,2.465l-7.4,7.4-7.4-8.319c-.771-.869-1.218-1.541-2.465-1.541s-1.693.672-2.465,1.541l-7.4,8.319-7.4-7.4C37.118,970.141,35.971,969.029,35.02,969.029Z" transform="translate(210.279 -805.744) rotate(-7)" fill="#545454"/>
      <path id="_6081f91e53ef53dd6b247b941e7f7dd8" data-name="6081f91e53ef53dd6b247b941e7f7dd8" d="M138.6,59.771V17.325H121.274V0H8.662V8.662H0V34.65H8.662v8.662H121.274V25.987h8.662V52.841L60.637,61.5V77.962H51.975v7.8s4.331,0,4.331,7.8-4.331,5.2-4.331,12.994V130.8s0,7.8,12.994,7.8,12.994-7.8,12.994-7.8V106.548c0-7.8-4.331-6.064-4.331-12.994s4.331-7.8,4.331-7.8v-7.8H69.3V68.433Z" transform="matrix(0.766, 0.643, -0.643, 0.766, 52.503, 577.293)" fill="#545454"/>
      <path id="_6081f91e53ef53dd6b247b941e7f7dd8-2" data-name="6081f91e53ef53dd6b247b941e7f7dd8" d="M70.862,30.559V8.858H62V0H4.429V4.429H0V17.716H4.429v4.429H62V13.287h4.429v13.73L31,31.445V39.86H26.573v3.986s2.214,0,2.214,3.986-2.214,2.657-2.214,6.643v12.4s0,3.986,6.643,3.986,6.643-3.986,6.643-3.986v-12.4c0-3.986-2.214-3.1-2.214-6.643s2.214-3.986,2.214-3.986V39.86H35.431V34.988Z" transform="translate(307.613 399.845) rotate(-21)" fill="#545454"/>
      <g id="_33ba9e2516b774534960876ff07def80" data-name="33ba9e2516b774534960876ff07def80" transform="translate(286.732 799.036)">
        <path id="Trazado_205" data-name="Trazado 205" d="M70.639,45V39.367a3.289,3.289,0,0,0-3.26-3.26H11.96a3.289,3.289,0,0,0-3.26,3.26V45a3.289,3.289,0,0,0,3.26,3.26H67.379A3.289,3.289,0,0,0,70.639,45ZM26.778,18.622,25.889,4.1a30.21,30.21,0,0,0-16.6,26.08,8.2,8.2,0,0,1,2.667-.3H67.379c.889,0,1.778.3,2.667.3A30.21,30.21,0,0,0,53.45,4.1l-.889,14.522a8.738,8.738,0,0,1-8.594,8.3H35.372A8.738,8.738,0,0,1,26.778,18.622Z" transform="translate(15.12 6.873)" fill="#545454"/>
        <path id="Trazado_206" data-name="Trazado 206" d="M50.492,27.865h8.594A3.151,3.151,0,0,0,62.05,25.2L63.236,4.453C63.236,2.378,62.05.6,60.272.6H49.6a3.246,3.246,0,0,0-2.964,3.853l1.185,21.042A2.613,2.613,0,0,0,50.492,27.865Zm4.149,64.9c13.929,0,26.08-16.893,27.265-31.711H27.376C28.858,75.875,40.712,92.768,54.641,92.768ZM1,142.557a2.8,2.8,0,0,0,2.964,2.964H105.615a2.8,2.8,0,0,0,2.964-2.964V130.109a32.506,32.506,0,0,0-32.6-32.6H33.6A32.506,32.506,0,0,0,1,130.109ZM120.73,95.732a23.439,23.439,0,0,0,16-6.52c6.224-5.927,8-14.818,5.334-23.116a2.542,2.542,0,0,0-2.075-1.778,2.39,2.39,0,0,0-2.667.889L128.435,74.1l-8-7.705,8.891-8.594a4.78,4.78,0,0,0,.889-2.667,2.928,2.928,0,0,0-2.075-2.075,19.923,19.923,0,0,0-7.113-1.185,23.439,23.439,0,0,0-16,6.52,22.384,22.384,0,0,0-6.52,16,22.875,22.875,0,0,0,.593,4.445L84.87,93.064a37.352,37.352,0,0,1,21.338,13.04L116.58,95.732Z" transform="translate(0 0)" fill="#545454"/>
      </g>
      <g id="_33ba9e2516b774534960876ff07def80-2" data-name="33ba9e2516b774534960876ff07def80" transform="matrix(0.995, -0.105, 0.105, 0.995, 117.397, 260.303)">
        <path id="Trazado_205-2" data-name="Trazado 205" d="M49.721,31.186V27.457A2.178,2.178,0,0,0,47.562,25.3h-36.7A2.178,2.178,0,0,0,8.7,27.457v3.729a2.178,2.178,0,0,0,2.159,2.159h36.7A2.178,2.178,0,0,0,49.721,31.186ZM20.673,13.717,20.084,4.1A20.008,20.008,0,0,0,9.093,21.372a5.434,5.434,0,0,1,1.766-.2h36.7c.589,0,1.178.2,1.766.2A20.008,20.008,0,0,0,38.338,4.1l-.589,9.617a5.787,5.787,0,0,1-5.692,5.5H26.365A5.787,5.787,0,0,1,20.673,13.717Z" transform="translate(7.413 3.37)" fill="#545454"/>
        <path id="Trazado_206-2" data-name="Trazado 206" d="M33.778,18.657H39.47a2.087,2.087,0,0,0,1.963-1.766l.785-13.739C42.218,1.778,41.433.6,40.255.6H33.189a2.15,2.15,0,0,0-1.963,2.552l.785,13.936A1.73,1.73,0,0,0,33.778,18.657Zm2.748,42.984c9.225,0,17.272-11.188,18.057-21H18.468C19.45,50.454,27.3,61.642,36.526,61.642ZM1,94.616a1.854,1.854,0,0,0,1.963,1.963H70.285a1.854,1.854,0,0,0,1.963-1.963V86.372a21.528,21.528,0,0,0-21.59-21.59H22.59A21.528,21.528,0,0,0,1,86.372ZM80.3,63.6a15.523,15.523,0,0,0,10.6-4.318,14.652,14.652,0,0,0,3.533-15.309A1.684,1.684,0,0,0,93.053,42.8a1.583,1.583,0,0,0-1.766.589L85.4,49.276l-5.3-5.1,5.888-5.692a3.166,3.166,0,0,0,.589-1.766A1.939,1.939,0,0,0,85.2,35.341a13.2,13.2,0,0,0-4.711-.785,15.523,15.523,0,0,0-10.6,4.318,14.825,14.825,0,0,0-4.318,10.6,15.15,15.15,0,0,0,.393,2.944l-9.421,9.421a24.738,24.738,0,0,1,14.132,8.636l6.87-6.87Z" transform="translate(0 0)" fill="#545454"/>
      </g>
      <g id="_21be3af5d0a2463d62fb028e9faf2576" data-name="21be3af5d0a2463d62fb028e9faf2576" transform="translate(307.613 611.194) rotate(-17)">
        <path id="Trazado_209" data-name="Trazado 209" d="M28.9,1.038h17.16V7.864H28.9ZM2.178,7.864V1.038H19.329V7.864ZM17.483,34.658,17.3,39.893a2.045,2.045,0,0,1-.6,1.372,1.872,1.872,0,0,1-1.327.554A1.909,1.909,0,0,1,13.448,39.9V25.569a.382.382,0,1,0-.754,0V42.293a1.818,1.818,0,0,1-.627,1.327,2.236,2.236,0,0,1-1.491.6A1.909,1.909,0,0,1,8.649,42.3V27.968a.382.382,0,0,0-.763,0V39.9a1.764,1.764,0,0,1-.654,1.3,2.463,2.463,0,0,1-1.581.618A1.909,1.909,0,0,1,3.723,39.9V32.331l.291-.073a2.69,2.69,0,0,0,2.009-2.59V29.6l-.009-3.154v-.036l.018-.091-.018-.427c-.045-2.109.236-6.253,2.69-7a7.271,7.271,0,0,0,3.363-1.954,3.272,3.272,0,0,0,.673-1.136.382.382,0,0,0-.727-.182,2.418,2.418,0,0,1-.636.991,6.944,6.944,0,0,1-2.89,1.554c-2.836.863-3.245,5.344-3.236,7.78l.018,3.345v.382A1.909,1.909,0,0,1,4.7,31.022a1.836,1.836,0,0,1-1.309.563H3.332A1.782,1.782,0,0,1,2.06,31.05a2.444,2.444,0,0,1-.654-1.427A75.714,75.714,0,0,1,.86,20.9a24.6,24.6,0,0,1,.718-6.38c.891-3.2,2.727-5.226,6.035-5.881l.036-.009h5.835a8.064,8.064,0,0,1,5.572,2.545,9.58,9.58,0,0,1,2.854,5.753l.091.527-.527-.091a10.415,10.415,0,0,0-6.435.918,27.674,27.674,0,0,0-4.181,2.754c-.818.609-1.636,1.218-2.481,1.781a.382.382,0,0,0,.418.636c.863-.573,1.691-1.182,2.518-1.8A24.143,24.143,0,0,1,15.566,18.9a9.78,9.78,0,0,1,6.2-.709l.291.064.018.3q.012.373.009.745V33.631a1.922,1.922,0,0,1-3.845,0V22.879a.382.382,0,1,0-.754,0V30.35L17.474,34.6v.055ZM30.762,35l-.018-.4V22.879a.382.382,0,1,0-.763,0V33.631a1.922,1.922,0,1,1-3.845,0V19.3c0-.254,0-.5.018-.745v-.3l.309-.064a9.8,9.8,0,0,1,6.19.709,24.215,24.215,0,0,1,4.263,2.754q1.233.936,2.518,1.8a.382.382,0,0,0,.418-.636c-.854-.564-1.672-1.172-2.481-1.781a27.08,27.08,0,0,0-4.19-2.754,10.222,10.222,0,0,0-6.435-.909l-.518.082.091-.527a9.58,9.58,0,0,1,2.854-5.753,8.047,8.047,0,0,1,5.572-2.545H40.6c3.308.663,5.153,2.69,6.044,5.89a24.6,24.6,0,0,1,.718,6.38,76.9,76.9,0,0,1-.554,8.725,2.4,2.4,0,0,1-.654,1.427,1.772,1.772,0,0,1-1.272.536h-.045a1.836,1.836,0,0,1-1.318-.564,1.9,1.9,0,0,1-.554-1.354V25.942c.018-2.436-.382-6.917-3.217-7.78a6.935,6.935,0,0,1-2.9-1.554,2.375,2.375,0,0,1-.618-.982.382.382,0,1,0-.736.182,3.263,3.263,0,0,0,.673,1.127,7.271,7.271,0,0,0,3.363,1.954c2.454.745,2.727,4.89,2.69,7q0,.259-.009.518v.036L42.2,29.6v.055a2.663,2.663,0,0,0,2.018,2.59l.282.073v7.571a1.909,1.909,0,0,1-1.918,1.918,2.482,2.482,0,0,1-1.591-.618,1.772,1.772,0,0,1-.654-1.3V27.959a.382.382,0,1,0-.763,0V42.293a1.909,1.909,0,0,1-1.927,1.918,2.226,2.226,0,0,1-1.491-.6,1.818,1.818,0,0,1-.618-1.318V25.569a.382.382,0,0,0-.763,0V39.9a1.909,1.909,0,0,1-3.254,1.363,2.038,2.038,0,0,1-.591-1.372L30.753,35Z" transform="translate(6.911 8.396)" fill="#545454" fill-rule="evenodd"/>
        <path id="Trazado_210" data-name="Trazado 210" d="M62.05,62.05H0V0H62.05Z" fill="none" fill-rule="evenodd"/>
      </g>
      <g id="_21be3af5d0a2463d62fb028e9faf2576-2" data-name="21be3af5d0a2463d62fb028e9faf2576" transform="translate(40.974 335.48) rotate(-17)">
        <path id="Trazado_209-2" data-name="Trazado 209" d="M28.9,1.038h17.16V7.864H28.9ZM2.178,7.864V1.038H19.329V7.864ZM17.483,34.658,17.3,39.893a2.045,2.045,0,0,1-.6,1.372,1.872,1.872,0,0,1-1.327.554A1.909,1.909,0,0,1,13.448,39.9V25.569a.382.382,0,1,0-.754,0V42.293a1.818,1.818,0,0,1-.627,1.327,2.236,2.236,0,0,1-1.491.6A1.909,1.909,0,0,1,8.649,42.3V27.968a.382.382,0,0,0-.763,0V39.9a1.764,1.764,0,0,1-.654,1.3,2.463,2.463,0,0,1-1.581.618A1.909,1.909,0,0,1,3.723,39.9V32.331l.291-.073a2.69,2.69,0,0,0,2.009-2.59V29.6l-.009-3.154v-.036l.018-.091-.018-.427c-.045-2.109.236-6.253,2.69-7a7.271,7.271,0,0,0,3.363-1.954,3.272,3.272,0,0,0,.673-1.136.382.382,0,0,0-.727-.182,2.418,2.418,0,0,1-.636.991,6.944,6.944,0,0,1-2.89,1.554c-2.836.863-3.245,5.344-3.236,7.78l.018,3.345v.382A1.909,1.909,0,0,1,4.7,31.022a1.836,1.836,0,0,1-1.309.563H3.332A1.782,1.782,0,0,1,2.06,31.05a2.444,2.444,0,0,1-.654-1.427A75.714,75.714,0,0,1,.86,20.9a24.6,24.6,0,0,1,.718-6.38c.891-3.2,2.727-5.226,6.035-5.881l.036-.009h5.835a8.064,8.064,0,0,1,5.572,2.545,9.58,9.58,0,0,1,2.854,5.753l.091.527-.527-.091a10.415,10.415,0,0,0-6.435.918,27.674,27.674,0,0,0-4.181,2.754c-.818.609-1.636,1.218-2.481,1.781a.382.382,0,0,0,.418.636c.863-.573,1.691-1.182,2.518-1.8A24.143,24.143,0,0,1,15.566,18.9a9.78,9.78,0,0,1,6.2-.709l.291.064.018.3q.012.373.009.745V33.631a1.922,1.922,0,0,1-3.845,0V22.879a.382.382,0,1,0-.754,0V30.35L17.474,34.6v.055ZM30.762,35l-.018-.4V22.879a.382.382,0,1,0-.763,0V33.631a1.922,1.922,0,1,1-3.845,0V19.3c0-.254,0-.5.018-.745v-.3l.309-.064a9.8,9.8,0,0,1,6.19.709,24.215,24.215,0,0,1,4.263,2.754q1.233.936,2.518,1.8a.382.382,0,0,0,.418-.636c-.854-.564-1.672-1.172-2.481-1.781a27.08,27.08,0,0,0-4.19-2.754,10.222,10.222,0,0,0-6.435-.909l-.518.082.091-.527a9.58,9.58,0,0,1,2.854-5.753,8.047,8.047,0,0,1,5.572-2.545H40.6c3.308.663,5.153,2.69,6.044,5.89a24.6,24.6,0,0,1,.718,6.38,76.9,76.9,0,0,1-.554,8.725,2.4,2.4,0,0,1-.654,1.427,1.772,1.772,0,0,1-1.272.536h-.045a1.836,1.836,0,0,1-1.318-.564,1.9,1.9,0,0,1-.554-1.354V25.942c.018-2.436-.382-6.917-3.217-7.78a6.935,6.935,0,0,1-2.9-1.554,2.375,2.375,0,0,1-.618-.982.382.382,0,1,0-.736.182,3.263,3.263,0,0,0,.673,1.127,7.271,7.271,0,0,0,3.363,1.954c2.454.745,2.727,4.89,2.69,7q0,.259-.009.518v.036L42.2,29.6v.055a2.663,2.663,0,0,0,2.018,2.59l.282.073v7.571a1.909,1.909,0,0,1-1.918,1.918,2.482,2.482,0,0,1-1.591-.618,1.772,1.772,0,0,1-.654-1.3V27.959a.382.382,0,1,0-.763,0V42.293a1.909,1.909,0,0,1-1.927,1.918,2.226,2.226,0,0,1-1.491-.6,1.818,1.818,0,0,1-.618-1.318V25.569a.382.382,0,0,0-.763,0V39.9a1.909,1.909,0,0,1-3.254,1.363,2.038,2.038,0,0,1-.591-1.372L30.753,35Z" transform="translate(6.911 8.396)" fill="#545454" fill-rule="evenodd"/>
        <path id="Trazado_210-2" data-name="Trazado 210" d="M62.05,62.05H0V0H62.05Z" fill="none" fill-rule="evenodd"/>
      </g>
      <path id="_3b4d02d7e6412caf24d63a6ec38e3fa5" data-name="3b4d02d7e6412caf24d63a6ec38e3fa5" d="M74.546,12.123H90.067A1.023,1.023,0,0,0,91,11.03c0-1.47-1.314-2.89-3.38-3.555C81.227,5.412,73.7,4.41,67.523,5.36c-3.183.49-5.39,2.233-5.39,9.283V81.355c0,7.05,2.207,8.794,5.39,9.283,6.175.95,13.7-.05,20.1-2.114C89.686,87.86,91,86.44,91,84.97a1.023,1.023,0,0,0-.932-1.093H74.545a1.87,1.87,0,0,1-1.673-2v-.05A1.81,1.81,0,0,1,74.494,79.9a91.21,91.21,0,0,0,14.47-1.286c1.13-.24,2.035-.713,2.035-.963s-.9-.723-2.035-.963a91.262,91.262,0,0,0-14.42-1.285,1.87,1.87,0,0,1-1.672-2v-.05a1.81,1.81,0,0,1,1.622-1.926,91.209,91.209,0,0,0,14.47-1.286c1.13-.24,2.035-.713,2.035-.963s-.9-.723-2.035-.963a91.231,91.231,0,0,0-14.42-1.285,1.87,1.87,0,0,1-1.672-2v-.05a1.81,1.81,0,0,1,1.622-1.926,91.257,91.257,0,0,0,14.47-1.286c1.13-.24,2.035-.713,2.035-.963s-.9-.723-2.035-.963a91.229,91.229,0,0,0-14.42-1.285,1.87,1.87,0,0,1-1.672-2v-.05a1.81,1.81,0,0,1,1.622-1.926,91.254,91.254,0,0,0,14.47-1.286c1.13-.24,2.035-.713,2.035-.963s-.9-.723-2.035-.963A91.211,91.211,0,0,0,74.544,50a2.028,2.028,0,0,1,0-3.994,91.242,91.242,0,0,0,14.42-1.285C90.094,44.478,91,44,91,43.755s-.9-.723-2.035-.963a91.253,91.253,0,0,0-14.47-1.286,1.81,1.81,0,0,1-1.622-1.927v-.05a1.87,1.87,0,0,1,1.673-2,91.247,91.247,0,0,0,14.419-1.285c1.13-.24,2.035-.713,2.035-.963s-.9-.723-2.035-.963a91.251,91.251,0,0,0-14.47-1.286,1.81,1.81,0,0,1-1.622-1.927v-.05a1.87,1.87,0,0,1,1.673-2,91.245,91.245,0,0,0,14.419-1.285c1.13-.24,2.035-.713,2.035-.963s-.9-.723-2.035-.963a91.219,91.219,0,0,0-14.47-1.286,1.81,1.81,0,0,1-1.622-1.927v-.05a1.87,1.87,0,0,1,1.673-2,91.249,91.249,0,0,0,14.419-1.285c1.13-.24,2.035-.713,2.035-.963s-.9-.723-2.035-.963A91.231,91.231,0,0,0,74.494,16.1a1.81,1.81,0,0,1-1.622-1.927v-.05a1.87,1.87,0,0,1,1.673-2Zm-34.79,51.76a6.086,6.086,0,0,0-2.29,1.144l-4.46-15.394.005-.01a10.157,10.157,0,0,0,1.1-3.378C35.188,38.523,39.228,8.38,37.05,5L28.562,34.3,20.073,5C17.9,8.38,21.937,38.523,23.015,46.245a10.158,10.158,0,0,0,1.1,3.379l0,.009L19.66,65.027a6.085,6.085,0,0,0-2.29-1.143c-5.144-1.354-10.512,3.572-11.99,11s1.49,14.552,6.633,15.906,8.545-4.09,10.024-11.52a24,24,0,0,0,.248-9.553l6.278-11.762L34.84,69.72a24,24,0,0,0,.248,9.552c1.479,7.43,4.88,12.875,10.023,11.52s8.113-8.475,6.634-15.9-6.847-12.357-11.99-11Zm-22.1,14.61a19.354,19.354,0,0,1-2.766,7.368c-1.214,1.636-2.24,1.629-3.085,1.406-3.093-.814-4.813-5.99-3.756-11.3s4.564-9.114,7.657-8.3c.845.223,1.772.73,2.246,2.81a20.553,20.553,0,0,1-.3,8.02Zm10.79-30.949a2.037,2.037,0,1,1,2.037-2.037,2.037,2.037,0,0,1-2.037,2.037Zm16.88,39.723c-.844.223-1.87.23-3.084-1.406a19.354,19.354,0,0,1-2.766-7.368,20.551,20.551,0,0,1-.3-8.019c.475-2.08,1.4-2.587,2.246-2.81,3.093-.814,6.6,2.987,7.657,8.3s-.662,10.49-3.755,11.3Z" transform="translate(152.312 26.514) rotate(22)" fill="#545454"/>
      <path id="_3b4d02d7e6412caf24d63a6ec38e3fa5-2" data-name="3b4d02d7e6412caf24d63a6ec38e3fa5" d="M57.054,10.331H68.672a.766.766,0,0,0,.7-.818c0-1.1-.984-2.163-2.53-2.661A34.667,34.667,0,0,0,51.8,5.269c-2.382.367-4.034,1.671-4.034,6.948V62.151c0,5.277,1.652,6.582,4.034,6.948a34.664,34.664,0,0,0,15.044-1.582c1.545-.5,2.528-1.56,2.528-2.66a.766.766,0,0,0-.7-.818H57.054A1.4,1.4,0,0,1,55.8,62.544v-.037a1.355,1.355,0,0,1,1.214-1.442A68.27,68.27,0,0,0,67.846,60.1c.846-.18,1.523-.534,1.523-.721s-.677-.541-1.523-.721A68.309,68.309,0,0,0,57.053,57.7,1.4,1.4,0,0,1,55.8,56.2v-.037a1.355,1.355,0,0,1,1.214-1.442,68.269,68.269,0,0,0,10.831-.963c.846-.18,1.523-.534,1.523-.721s-.677-.541-1.523-.721a68.286,68.286,0,0,0-10.793-.962A1.4,1.4,0,0,1,55.8,49.864v-.037a1.355,1.355,0,0,1,1.214-1.442,68.3,68.3,0,0,0,10.831-.963c.846-.18,1.523-.534,1.523-.721s-.677-.541-1.523-.721a68.284,68.284,0,0,0-10.793-.962A1.4,1.4,0,0,1,55.8,43.524v-.037a1.355,1.355,0,0,1,1.214-1.442,68.3,68.3,0,0,0,10.831-.963c.846-.18,1.523-.534,1.523-.721s-.677-.541-1.523-.721a68.271,68.271,0,0,0-10.793-.962,1.518,1.518,0,0,1,0-2.989,68.294,68.294,0,0,0,10.793-.962c.846-.18,1.523-.534,1.523-.721s-.677-.541-1.523-.721a68.3,68.3,0,0,0-10.831-.963A1.355,1.355,0,0,1,55.8,30.882v-.037a1.4,1.4,0,0,1,1.252-1.494,68.3,68.3,0,0,0,10.792-.962c.846-.18,1.523-.534,1.523-.721s-.677-.541-1.523-.721a68.3,68.3,0,0,0-10.831-.963A1.355,1.355,0,0,1,55.8,24.542V24.5a1.4,1.4,0,0,1,1.252-1.494,68.3,68.3,0,0,0,10.792-.962c.846-.18,1.523-.534,1.523-.721s-.677-.541-1.523-.721a68.276,68.276,0,0,0-10.831-.963A1.355,1.355,0,0,1,55.8,18.2v-.037a1.4,1.4,0,0,1,1.252-1.494,68.3,68.3,0,0,0,10.792-.962c.846-.18,1.523-.534,1.523-.721s-.677-.541-1.523-.721a68.286,68.286,0,0,0-10.831-.963A1.355,1.355,0,0,1,55.8,11.863v-.037a1.4,1.4,0,0,1,1.252-1.494ZM31.015,49.073a4.555,4.555,0,0,0-1.714.856L25.962,38.407l0-.007a7.6,7.6,0,0,0,.823-2.528C27.6,30.091,30.619,7.53,28.989,5L22.636,26.929,16.282,5c-1.629,2.53,1.4,25.092,2.2,30.871a7.6,7.6,0,0,0,.823,2.529l0,.007L15.973,49.929a4.555,4.555,0,0,0-1.714-.856c-3.85-1.013-7.868,2.674-8.974,8.236S6.4,68.2,10.249,69.215s6.4-3.061,7.5-8.623a17.965,17.965,0,0,0,.186-7.15l4.7-8.8,4.7,8.8a17.965,17.965,0,0,0,.186,7.15c1.107,5.561,3.653,9.637,7.5,8.623s6.072-6.343,4.965-11.9-5.125-9.249-8.974-8.236ZM14.471,60.008a14.486,14.486,0,0,1-2.07,5.515c-.909,1.225-1.677,1.219-2.309,1.052-2.315-.609-3.6-4.483-2.811-8.46S10.7,51.294,13.011,51.9c.632.167,1.326.546,1.681,2.1a15.384,15.384,0,0,1-.222,6Zm8.076-23.165a1.525,1.525,0,1,1,1.525-1.525,1.525,1.525,0,0,1-1.525,1.525ZM35.181,66.576c-.632.167-1.4.172-2.308-1.052a14.486,14.486,0,0,1-2.07-5.515,15.382,15.382,0,0,1-.222-6c.356-1.557,1.049-1.936,1.681-2.1,2.315-.609,4.94,2.236,5.731,6.212s-.5,7.852-2.811,8.46Z" transform="matrix(0.978, -0.208, 0.208, 0.978, 11.874, 437.359)" fill="#545454"/>
      <path id="_3b4d02d7e6412caf24d63a6ec38e3fa5-3" data-name="3b4d02d7e6412caf24d63a6ec38e3fa5" d="M57.494,10.376H69.21a.772.772,0,0,0,.7-.825c0-1.11-.992-2.181-2.551-2.683a34.96,34.96,0,0,0-15.169-1.6c-2.4.37-4.068,1.685-4.068,7.007V62.633c0,5.321,1.666,6.638,4.068,7.007a34.957,34.957,0,0,0,15.171-1.6c1.558-.5,2.55-1.573,2.55-2.683a.772.772,0,0,0-.7-.825H57.493a1.411,1.411,0,0,1-1.263-1.507v-.038a1.366,1.366,0,0,1,1.224-1.454,68.847,68.847,0,0,0,10.922-.971c.853-.181,1.536-.538,1.536-.727s-.683-.546-1.536-.727a68.886,68.886,0,0,0-10.884-.97,1.412,1.412,0,0,1-1.262-1.507V56.6a1.366,1.366,0,0,1,1.224-1.454,68.845,68.845,0,0,0,10.922-.971c.853-.181,1.536-.538,1.536-.727s-.683-.546-1.536-.727a68.862,68.862,0,0,0-10.884-.97,1.411,1.411,0,0,1-1.262-1.507v-.038a1.366,1.366,0,0,1,1.224-1.454,68.882,68.882,0,0,0,10.922-.971c.853-.181,1.536-.538,1.536-.727s-.683-.546-1.536-.727a68.861,68.861,0,0,0-10.884-.97,1.411,1.411,0,0,1-1.262-1.507v-.038a1.366,1.366,0,0,1,1.224-1.454,68.879,68.879,0,0,0,10.922-.971c.853-.181,1.536-.538,1.536-.727s-.683-.546-1.536-.727a68.847,68.847,0,0,0-10.884-.97,1.531,1.531,0,0,1,0-3.015,68.87,68.87,0,0,0,10.884-.97c.853-.181,1.536-.538,1.536-.727s-.683-.546-1.536-.727a68.878,68.878,0,0,0-10.922-.971A1.366,1.366,0,0,1,56.231,31.1v-.038a1.411,1.411,0,0,1,1.263-1.507,68.874,68.874,0,0,0,10.884-.97c.853-.181,1.536-.538,1.536-.727s-.683-.546-1.536-.727a68.877,68.877,0,0,0-10.922-.971,1.366,1.366,0,0,1-1.224-1.455v-.038a1.411,1.411,0,0,1,1.263-1.507,68.872,68.872,0,0,0,10.884-.97c.853-.181,1.536-.538,1.536-.727s-.683-.546-1.536-.727a68.853,68.853,0,0,0-10.922-.971,1.366,1.366,0,0,1-1.224-1.455v-.038a1.411,1.411,0,0,1,1.263-1.507,68.876,68.876,0,0,0,10.884-.97c.853-.181,1.536-.538,1.536-.727s-.683-.546-1.536-.727a68.862,68.862,0,0,0-10.922-.971,1.366,1.366,0,0,1-1.224-1.455v-.038a1.411,1.411,0,0,1,1.263-1.507ZM31.234,49.445a4.594,4.594,0,0,0-1.729.863l-3.366-11.62,0-.008a7.667,7.667,0,0,0,.83-2.55C27.786,30.3,30.836,7.551,29.192,5L22.785,27.114,16.377,5C14.735,7.551,17.784,30.3,18.6,36.132a7.667,7.667,0,0,0,.83,2.551l0,.007-3.366,11.62a4.593,4.593,0,0,0-1.729-.863c-3.883-1.022-7.935,2.7-9.05,8.305s1.125,10.984,5.007,12.006,6.45-3.087,7.566-8.7a18.117,18.117,0,0,0,.187-7.211l4.739-8.878,4.738,8.878a18.117,18.117,0,0,0,.187,7.21c1.116,5.608,3.683,9.718,7.565,8.7s6.124-6.4,5.007-12.005-5.168-9.327-9.05-8.305ZM14.551,60.473a14.609,14.609,0,0,1-2.088,5.561c-.916,1.235-1.691,1.23-2.329,1.061C7.8,66.481,6.5,62.575,7.3,58.564s3.445-6.879,5.78-6.265c.638.168,1.338.551,1.7,2.121a15.514,15.514,0,0,1-.223,6.054ZM22.7,37.112a1.538,1.538,0,1,1,1.538-1.538A1.538,1.538,0,0,1,22.7,37.112ZM35.436,67.1c-.637.168-1.411.174-2.328-1.061a14.609,14.609,0,0,1-2.088-5.561A15.512,15.512,0,0,1,30.8,54.42c.359-1.57,1.058-1.953,1.7-2.121,2.335-.614,4.982,2.255,5.78,6.265s-.5,7.918-2.834,8.532Z" transform="translate(351.301 664.024) rotate(22)" fill="#545454"/>
      <g id="Grupo_501" data-name="Grupo 501" transform="translate(116.551 427.812) rotate(-9)">
        <g id="Grupo_500" data-name="Grupo 500" clip-path="url(#clip-path)">
          <path id="Trazado_211" data-name="Trazado 211" d="M71.965,128.414V94.958c0-.531.025-1.063-.005-1.593-.054-.941.177-1.58,1.309-1.43a6.109,6.109,0,0,0,.8,0c9.028,0,18.056-.018,27.084.008,3.666.011,6.2,1.7,7.442,4.9a6.789,6.789,0,0,1,.48,2.306c.049,3.805.041,7.611.014,11.417-.01,1.448-.058,1.448-1.49,1.517-.088,0-.177,0-.265,0-4.013.123-4,.116-6.48-2.939a34.866,34.866,0,0,0-2.613-2.991,1.844,1.844,0,0,0-2.816-.027,1.686,1.686,0,0,0-.2,2.589c1.952,2.4,3.976,4.744,6.1,6.989a3.382,3.382,0,0,0,2.194.6c3.273.063,6.549.028,9.824.028l31.6,0a12.214,12.214,0,0,1,2.118.051c.312.056.79.5.793.774a65.7,65.7,0,0,1-.115,9.278c-.419,3.165-2.777,5.034-6.222,5.627a12.641,12.641,0,0,1-2.121.042c-13.63,0-27.261-.018-40.89.033a3.951,3.951,0,0,1-3.423-1.485c-2.889-3.462-5.89-6.829-8.848-10.233A16.6,16.6,0,0,0,85,119.033a2.052,2.052,0,0,0-3.082,2.7c.631.85,1.33,1.652,2.029,2.449,2.916,3.324,5.925,6.57,8.73,9.984a5.933,5.933,0,0,0,5.094,2.2c3.186-.037,6.373-.027,9.558,0,1.715.013,1.757.046,1.759,1.784q.023,16.064.005,32.128c0,1.7-.016,1.77-1.612,2.207a36.885,36.885,0,0,1-14.656,1.284,43.251,43.251,0,0,1-10.739-2.688,44.514,44.514,0,0,1-8.915-5.168,2.6,2.6,0,0,1-1.218-2.459c.075-1.678.02-3.362.02-5.044v-30Z" transform="translate(-33.715 -43.073)" fill="#545454"/>
          <path id="Trazado_212" data-name="Trazado 212" d="M34,113.989c0,6.642.009,13.284-.006,19.926,0,1.857-.039,1.886-1.917,1.888-7.882.008-15.764.046-23.645-.022-5.307-.045-8.376-3.194-8.39-8.489-.024-9.033.079-18.067-.045-27.1a7.9,7.9,0,0,1,8.119-8.235q11.956-.022,23.911-.005c1.943,0,1.966.036,1.969,2.11q.017,9.963,0,19.926" transform="translate(0 -43.088)" fill="#545454"/>
          <path id="Trazado_213" data-name="Trazado 213" d="M89.667,35.527c-3.539,0-7.084-.123-10.617.033a6.987,6.987,0,0,1-7.086-7.01c-.016-7.079-.073-14.158.018-21.236C72.038,2.9,75.045.126,79.745.041,84.256-.04,88.77.023,93.283.023c2.212,0,4.426-.059,6.636.015,3.386.114,5.94,1.547,7.163,4.872a6.4,6.4,0,0,1,.372,1.532c.12,1.158-.07,1.4-1.279,1.411-2.742.036-5.486.01-8.229.011-2.212,0-4.425-.029-6.636.013-4.027.076-6.233,2.268-6.276,6.222-.028,2.566.117,5.14-.043,7.7a5.933,5.933,0,0,0,6.152,6.166c4.689-.036,9.379-.016,14.069,0,2.407.007,2.751.525,1.941,2.819a6.621,6.621,0,0,1-6.6,4.741c-3.627.05-7.255.012-10.883.012Z" transform="translate(-33.709 0)" fill="#545454"/>
          <path id="Trazado_214" data-name="Trazado 214" d="M80.772,220.6c-14.452-.051-25.087-4.272-33.913-12.664a43.873,43.873,0,0,1-13.433-25.587c-.068-.435-.2-.859-.275-1.293-.391-2.228-.12-2.481,2.072-2.347,1.057.065,1.269.6,1.389,1.513a41.421,41.421,0,0,0,7.3,18.831c6.36,8.967,14.91,14.92,25.637,17.087,13.377,2.7,25.661-.128,36.221-9.093a42.67,42.67,0,0,0,14.78-26.783,27.131,27.131,0,0,0,.172-3.712c.016-.912.171-1.591,1.344-1.389a3.4,3.4,0,0,0,1.045-.126c.979-.153,1.26.346,1.173,1.225a66,66,0,0,1-.756,7.366c-3.108,14.435-11.194,25.21-24.286,32.055-6.433,3.364-13.366,5.035-18.467,4.917" transform="translate(-15.465 -82.013)" fill="#545454"/>
          <path id="Trazado_215" data-name="Trazado 215" d="M113.593,34.384c-2.382,0-4.765.036-7.146-.012-1.893-.038-2.336-.487-2.369-2.35-.04-2.293-.049-4.588,0-6.881.043-2,.35-2.317,2.324-2.332q7.279-.053,14.558-.014c1.522.006,1.552.052,1.566,1.666q.037,4.235,0,8.47c-.013,1.392-.053,1.426-1.523,1.442-2.47.029-4.941.008-7.411.008Z" transform="translate(-48.758 -10.676)" fill="#545454"/>
          <path id="Trazado_216" data-name="Trazado 216" d="M261.059,141.7c3.094,0,6.194.108,9.282-.026a46,46,0,0,1,12.813,1.542c3.51.844,7.069,1.485,10.606,2.221a7.621,7.621,0,0,1,1.273.325,1.531,1.531,0,0,1,.941,1.715,1.473,1.473,0,0,1-1.29,1.463,4.977,4.977,0,0,1-1.819-.109c-5.344-1.115-10.677-2.285-16.028-3.366a17.545,17.545,0,0,0-3.433-.207q-13-.022-25.993-.006a8.7,8.7,0,0,1-1.585-.034,1.206,1.206,0,0,1-.682-.6c-.11-.2-.013-.517-.013-.781,0-2.236-.291-2.127,2.137-2.131q6.9-.01,13.792,0" transform="translate(-114.855 -66.377)" fill="#545454"/>
          <path id="Trazado_217" data-name="Trazado 217" d="M222.616,141.413q.219-1.654.439-3.308a39.021,39.021,0,0,1,4.155-.156,3.74,3.74,0,0,1,3.315,2.944,3.668,3.668,0,0,1-1.7,3.839,4.505,4.505,0,0,1-2.225.553c-4.541-.05-3.737.767-3.842-3.592,0-.088,0-.176,0-.264l-.135-.016" transform="translate(-104.323 -64.635)" fill="#545454"/>
          <path id="Trazado_218" data-name="Trazado 218" d="M388.484,123.7a1.878,1.878,0,0,1-1.678,1.693,1.8,1.8,0,0,1-1.821-1.791,1.834,1.834,0,0,1,1.926-1.687,1.876,1.876,0,0,1,1.573,1.784" transform="translate(-180.413 -57.13)" fill="#545454"/>
          <path id="Trazado_219" data-name="Trazado 219" d="M354.414,142.031a1.894,1.894,0,0,1-2.046,1.561,1.574,1.574,0,0,1-1.432-1.81,1.846,1.846,0,0,1,1.687-1.663,2.149,2.149,0,0,1,1.79,1.912" transform="translate(-164.453 -65.662)" fill="#545454"/>
          <path id="Trazado_220" data-name="Trazado 220" d="M347.536,163.811a1.832,1.832,0,0,1,1.967,1.7,1.809,1.809,0,0,1-1.706,1.707,1.929,1.929,0,0,1-1.791-1.644,1.553,1.553,0,0,1,1.531-1.767" transform="translate(-162.144 -76.765)" fill="#545454"/>
          <path id="Trazado_221" data-name="Trazado 221" d="M361.507,180.677a1.889,1.889,0,0,1-1.936,1.7,1.867,1.867,0,0,1-1.578-1.78,1.829,1.829,0,0,1,1.922-1.69,1.887,1.887,0,0,1,1.591,1.768" transform="translate(-167.764 -83.838)" fill="#545454"/>
          <path id="Trazado_222" data-name="Trazado 222" d="M371.725,197.478a1.859,1.859,0,0,1-1.723-1.69,1.8,1.8,0,0,1,1.883-1.775,1.93,1.93,0,0,1,1.6,1.823,1.844,1.844,0,0,1-1.761,1.643" transform="translate(-173.392 -90.915)" fill="#545454"/>
          <path id="Trazado_223" data-name="Trazado 223" d="M354.42,156.33a1.724,1.724,0,0,1-1.579-1.754,1.6,1.6,0,0,1,1.836-1.723,1.588,1.588,0,0,1,1.418,1.855,1.623,1.623,0,0,1-1.674,1.622" transform="translate(-165.35 -71.625)" fill="#545454"/>
          <path id="Trazado_224" data-name="Trazado 224" d="M371.4,132.785a1.851,1.851,0,0,1-1.681,1.7,1.805,1.805,0,0,1-1.722-1.916,1.887,1.887,0,0,1,1.8-1.586,1.97,1.97,0,0,1,1.6,1.8" transform="translate(-172.448 -61.384)" fill="#545454"/>
          <path id="Trazado_225" data-name="Trazado 225" d="M373.456,156.853a1.486,1.486,0,0,1,1.626,1.617,1.672,1.672,0,0,1-1.709,1.851,1.873,1.873,0,0,1-1.526-1.835,1.5,1.5,0,0,1,1.609-1.632" transform="translate(-174.256 -73.505)" fill="#545454"/>
          <path id="Trazado_226" data-name="Trazado 226" d="M394.054,162.549a1.838,1.838,0,0,1-1.674,1.729,1.87,1.87,0,0,1-1.55-1.849,1.614,1.614,0,1,1,3.224.12" transform="translate(-183.153 -75.363)" fill="#545454"/>
        </g>
      </g>
      <g id="Grupo_507" data-name="Grupo 507" transform="translate(150.461 799.636) rotate(-171)">
        <g id="Grupo_500-2" data-name="Grupo 500" transform="translate(0 0)" clip-path="url(#clip-path-2)">
          <path id="Trazado_211-2" data-name="Trazado 211" d="M.011,24.7v18.11c0,.287.014.576,0,.862-.029.509.1.855.708.774a3.307,3.307,0,0,1,.431,0c4.887,0,9.774.01,14.661,0a3.986,3.986,0,0,0,4.029-2.651,3.675,3.675,0,0,0,.26-1.248c.026-2.06.022-4.12.007-6.18-.005-.784-.032-.784-.807-.821-.048,0-.1,0-.144,0-2.173-.067-2.167-.063-3.508,1.591a18.873,18.873,0,0,1-1.415,1.619,1,1,0,0,1-1.524.015.913.913,0,0,1-.109-1.4c1.057-1.3,2.152-2.568,3.3-3.783a1.831,1.831,0,0,1,1.187-.327c1.772-.034,3.545-.015,5.318-.015h17.1a6.612,6.612,0,0,0,1.146-.028c.169-.03.427-.271.429-.419a35.564,35.564,0,0,0-.062-5.023c-.227-1.713-1.5-2.725-3.368-3.046a6.843,6.843,0,0,0-1.148-.023c-7.378,0-14.757.009-22.135-.018a2.139,2.139,0,0,0-1.853.8c-1.564,1.874-3.189,3.7-4.79,5.539a8.987,8.987,0,0,1-.665.753,1.041,1.041,0,0,1-1.535.069A1.049,1.049,0,0,1,5.4,28.31c.341-.46.72-.894,1.1-1.325,1.578-1.8,3.207-3.557,4.726-5.4a3.212,3.212,0,0,1,2.758-1.193c1.724.02,3.45.014,5.174,0,.928-.007.951-.025.952-.966q.013-8.7,0-17.391c0-.92-.009-.958-.872-1.195A19.967,19.967,0,0,0,11.3.141,23.414,23.414,0,0,0,5.488,1.6a24.1,24.1,0,0,0-4.826,2.8A1.409,1.409,0,0,0,0,5.724c.041.908.011,1.82.011,2.73V24.7Z" transform="translate(20.695 4.129)" fill="#545454"/>
          <path id="Trazado_212-2" data-name="Trazado 212" d="M18.407,11.818c0-3.6,0-7.191,0-10.786C18.4.026,18.382.011,17.366.01c-4.267,0-8.533-.025-12.8.012C1.693.046.032,1.751.025,4.617.011,9.506.067,14.4,0,19.286A4.279,4.279,0,0,0,4.4,23.744q6.472.012,12.944,0c1.052,0,1.064-.02,1.066-1.142q.009-5.393,0-10.786" transform="translate(0 24.824)" fill="#545454"/>
          <path id="Trazado_213-2" data-name="Trazado 213" d="M9.6.021C7.684.021,5.766.088,3.853,0A3.782,3.782,0,0,0,.018,3.8c-.009,3.832-.04,7.664.009,11.5.031,2.389,1.658,3.891,4.2,3.937,2.442.044,4.885.01,7.328.01,1.2,0,2.4.032,3.592-.008a3.891,3.891,0,0,0,3.878-2.637,3.465,3.465,0,0,0,.2-.829c.065-.627-.038-.756-.692-.764-1.485-.019-2.97-.005-4.454-.006-1.2,0-2.4.016-3.592-.007a3.1,3.1,0,0,1-3.4-3.368c-.015-1.389.064-2.782-.023-4.166A3.212,3.212,0,0,1,10.4,4.116c2.538.02,5.077.009,7.616,0,1.3,0,1.489-.284,1.051-1.526A3.584,3.584,0,0,0,15.492.024C13.528,0,11.564.018,9.6.018Z" transform="translate(20.691 55.769)" fill="#545454"/>
          <path id="Trazado_214-2" data-name="Trazado 214" d="M25.859,0C18.036.031,12.279,2.315,7.5,6.859A23.749,23.749,0,0,0,.23,20.709c-.037.235-.108.465-.149.7C-.13,22.615.016,22.753,1.2,22.68c.572-.035.687-.326.752-.819A22.422,22.422,0,0,1,5.9,11.667,22.014,22.014,0,0,1,19.782,2.418,22.185,22.185,0,0,1,39.389,7.34a23.1,23.1,0,0,1,8,14.5,14.687,14.687,0,0,1,.093,2.009c.009.494.093.862.728.752a1.842,1.842,0,0,1,.566.068c.53.083.682-.188.635-.663A35.724,35.724,0,0,0,49,20.017,24.544,24.544,0,0,0,35.855,2.665,21.96,21.96,0,0,0,25.859,0" transform="translate(9.493 0)" fill="#545454"/>
          <path id="Trazado_215-2" data-name="Trazado 215" d="M5.169.007C3.879.007,2.589-.012,1.3.013.276.034.036.277.018,1.286,0,2.527-.008,3.769.018,5.011.042,6.094.208,6.265,1.276,6.273q3.94.029,7.88.008c.824,0,.84-.028.848-.9q.02-2.292,0-4.585C10,.041,9.976.022,9.18.013,7.843,0,6.506.009,5.169.009Z" transform="translate(29.928 62.181)" fill="#545454"/>
          <path id="Trazado_216-2" data-name="Trazado 216" d="M8.644,3.943c1.675,0,3.353-.059,5.025.014A24.9,24.9,0,0,0,20.6,3.123c1.9-.457,3.827-.8,5.741-1.2a4.124,4.124,0,0,0,.689-.176.829.829,0,0,0,.509-.928.8.8,0,0,0-.7-.792,2.694,2.694,0,0,0-.985.059c-2.893.6-5.78,1.237-8.676,1.822a9.5,9.5,0,0,1-1.858.112q-7.035.012-14.07,0A4.708,4.708,0,0,0,.4,2.039a.653.653,0,0,0-.369.327c-.06.11-.007.28-.007.423C.021,4-.136,3.941,1.178,3.943q3.733.005,7.466,0" transform="translate(70.498 30.306)" fill="#545454"/>
          <path id="Trazado_217-2" data-name="Trazado 217" d="M0,2.112.238,3.9a21.126,21.126,0,0,0,2.249.085A2.025,2.025,0,0,0,4.281,2.394,1.985,1.985,0,0,0,3.358.316a2.439,2.439,0,0,0-1.2-.3C-.3.044.131-.4.074,1.961c0,.047,0,.1,0,.143L0,2.112" transform="translate(64.034 31.349)" fill="#545454"/>
          <path id="Trazado_218-2" data-name="Trazado 218" d="M1.895.917A1.017,1.017,0,0,0,.986,0,.974.974,0,0,0,0,.97a.993.993,0,0,0,1.043.913A1.016,1.016,0,0,0,1.895.917" transform="translate(110.738 38.069)" fill="#545454"/>
          <path id="Trazado_219-2" data-name="Trazado 219" d="M1.888.85A1.025,1.025,0,0,0,.78,0a.852.852,0,0,0-.775.98,1,1,0,0,0,.913.9A1.163,1.163,0,0,0,1.888.85" transform="translate(100.942 32.833)" fill="#545454"/>
          <path id="Trazado_220-2" data-name="Trazado 220" d="M.832,1.846A.992.992,0,0,0,1.9.924.98.98,0,0,0,.973,0,1.044,1.044,0,0,0,0,.89a.841.841,0,0,0,.829.957" transform="translate(99.524 26.056)" fill="#545454"/>
          <path id="Trazado_221-2" data-name="Trazado 221" d="M1.9.926A1.023,1.023,0,0,0,.854,0,1.01,1.01,0,0,0,0,.968a.99.99,0,0,0,1.04.915A1.021,1.021,0,0,0,1.9.926" transform="translate(102.974 21.675)" fill="#545454"/>
          <path id="Trazado_222-2" data-name="Trazado 222" d="M.933,0A1.006,1.006,0,0,0,0,.915a.975.975,0,0,0,1.019.961A1.045,1.045,0,0,0,1.887.89,1,1,0,0,0,.933,0" transform="translate(106.428 17.337)" fill="#545454"/>
          <path id="Trazado_223-2" data-name="Trazado 223" d="M.855,0A.933.933,0,0,0,0,.951a.869.869,0,0,0,.994.933.859.859,0,0,0,.767-1A.879.879,0,0,0,.855,0" transform="translate(101.492 29.168)" fill="#545454"/>
          <path id="Trazado_224-2" data-name="Trazado 224" d="M1.846.923A1,1,0,0,0,.937,0,.977.977,0,0,0,0,1.037,1.022,1.022,0,0,0,.98,1.9,1.066,1.066,0,0,0,1.846.923" transform="translate(105.849 35.449)" fill="#545454"/>
          <path id="Trazado_225-2" data-name="Trazado 225" d="M.871,1.88A.8.8,0,0,0,1.751,1,.905.905,0,0,0,.826,0,1.014,1.014,0,0,0,0,1a.811.811,0,0,0,.871.884" transform="translate(106.959 28.025)" fill="#545454"/>
          <path id="Trazado_226-2" data-name="Trazado 226" d="M1.745.937A1,1,0,0,0,.839,0,1.012,1.012,0,0,0,0,1a.807.807,0,0,0,.9.871A.813.813,0,0,0,1.745.937" transform="translate(112.419 26.89)" fill="#545454"/>
        </g>
      </g>
      <path id="ba98dc4a529968ce273e11ddb470068e" d="M26.844,21.561a10.781,10.781,0,1,0-10.78-10.781A10.781,10.781,0,0,0,26.844,21.561ZM26.826,44.1H15.43V35.869L6.715,44.642c-3.937,3.937-9.274-1.111-5.33-5.056l14.43-14.458a5.872,5.872,0,0,1,4.484-1.9h12.94a6.124,6.124,0,0,1,4.609,1.9l14.577,14.6c3.755,3.755-1.726,8.851-5.328,5.058l-8.944-8.962V44.1H26.826Zm11.281,4.267L29.542,56.93l6.288,6.276-6.443,6.443a3.791,3.791,0,1,0,5.376,5.309l10.19-10.6c2.187-2.232,2.792-6.354.447-8.7l-7.293-7.3Zm-22.674,0L24,56.93l-6.288,6.276,6.443,6.443a3.791,3.791,0,1,1-5.376,5.309L8.586,64.363c-2.187-2.232-2.792-6.354-.447-8.7l7.293-7.3Z" transform="translate(215 155.441)" fill="#545454"/>
      <path id="ba98dc4a529968ce273e11ddb470068e-2" data-name="ba98dc4a529968ce273e11ddb470068e" d="M29.136,23.4a11.7,11.7,0,1,0-11.7-11.7A11.7,11.7,0,0,0,29.136,23.4Zm-.019,24.46H16.748V38.932L7.288,48.454C3.015,52.727-2.778,47.248,1.5,42.966L17.166,27.274a6.373,6.373,0,0,1,4.867-2.064H36.078a6.647,6.647,0,0,1,5,2.064L56.9,43.12c4.075,4.075-1.874,9.607-5.783,5.49l-9.707-9.728v8.98H29.117Zm12.244,4.632-9.3,9.3L38.89,68.6,31.9,75.6a4.114,4.114,0,1,0,5.835,5.763l11.06-11.5c2.374-2.422,3.03-6.9.485-9.441l-7.916-7.924Zm-24.611,0,9.3,9.3L19.221,68.6,26.214,75.6a4.114,4.114,0,1,1-5.835,5.763L9.32,69.859c-2.374-2.422-3.03-6.9-.485-9.441l7.916-7.924Z" transform="translate(215 637.364) rotate(-7)" fill="#545454"/>
    </g>
  </g>
</svg>
