<svg xmlns="http://www.w3.org/2000/svg" width="24" height="24" viewBox="0 0 24 24">
  <path id="Unión_9" data-name="Unión 9" d="M20.047,23.3l-5.429-5.432A9.425,9.425,0,0,1,9.676,19.25H9.641A9.659,9.659,0,0,1,2.79,2.8,9.612,9.612,0,0,1,9.544,0h.039a9.694,9.694,0,0,1,9.641,9.652,9.443,9.443,0,0,1-1.364,4.955L23.3,20.046A2.3,2.3,0,1,1,20.047,23.3ZM5.429,5.438A5.935,5.935,0,0,0,9.644,15.524h.022a5.9,5.9,0,0,0-.085-11.8H9.553A5.8,5.8,0,0,0,5.429,5.438Z" transform="translate(0)" fill="#fff"/>
</svg>
