<svg id="ALBAÑIL" xmlns="http://www.w3.org/2000/svg" width="22.96" height="24.339" viewBox="0 0 22.96 24.339">
  <path id="Trazado_205" data-name="Trazado 205" d="M18.7,10.969v-.946a.542.542,0,0,0-.526-.548H9.226a.542.542,0,0,0-.526.548v.946a.542.542,0,0,0,.526.548H18.17A.542.542,0,0,0,18.7,10.969Zm-7.079-4.43L11.474,4.1A5.093,5.093,0,0,0,8.8,8.48a1.275,1.275,0,0,1,.43-.05H18.17c.143,0,.287.05.43.05A5.093,5.093,0,0,0,15.922,4.1l-.143,2.439a1.437,1.437,0,0,1-1.387,1.394H13A1.437,1.437,0,0,1,11.618,6.539Z" transform="translate(-5.017 -2.358)" fill="#545454"/>
  <path id="Trazado_206" data-name="Trazado 206" d="M8.987,5.179h1.387a.516.516,0,0,0,.478-.448l.191-3.484C11.044.9,10.853.6,10.566.6H8.844a.541.541,0,0,0-.478.647l.191,3.534A.429.429,0,0,0,8.987,5.179Zm.67,10.9c2.248,0,4.209-2.837,4.4-5.326h-8.8C5.5,13.242,7.409,16.08,9.657,16.08ZM1,24.441a.461.461,0,0,0,.478.5H17.884a.461.461,0,0,0,.478-.5v-2.09A5.356,5.356,0,0,0,13.1,16.876H6.261A5.356,5.356,0,0,0,1,22.351Zm19.323-7.864a3.707,3.707,0,0,0,2.583-1.1,3.823,3.823,0,0,0,.861-3.882.415.415,0,0,0-.335-.3.378.378,0,0,0-.43.149l-1.435,1.493L20.275,11.65l1.435-1.443a.825.825,0,0,0,.143-.448.483.483,0,0,0-.335-.348,3.1,3.1,0,0,0-1.148-.2,3.707,3.707,0,0,0-2.583,1.1,3.839,3.839,0,0,0-1.052,2.688,3.989,3.989,0,0,0,.1.747l-2.3,2.389a6,6,0,0,1,3.444,2.19l1.674-1.742Z" transform="translate(-1 -0.6)" fill="#545454"/>
</svg>
