<svg id="CONSTRUCCION" xmlns="http://www.w3.org/2000/svg" width="26.63" height="24.855" viewBox="0 0 26.63 24.855">
  <path id="Trazado_230" data-name="Trazado 230" d="M35.248,37.766a.444.444,0,0,0-.614,0L24.421,47.524a.444.444,0,0,0-.137.321l0,9.158a1.775,1.775,0,0,0,1.775,1.775h5.332a.888.888,0,0,0,.888-.888V50.345a.444.444,0,0,1,.444-.444h4.438a.444.444,0,0,1,.444.444V57.89a.888.888,0,0,0,.888.888H43.82A1.775,1.775,0,0,0,45.6,57V47.845a.444.444,0,0,0-.137-.321Z" transform="translate(-21.624 -33.923)" fill="#545454"/>
  <path id="Trazado_231" data-name="Trazado 231" d="M32.428,23.93l-4.15-3.97V13.935a.888.888,0,0,0-.888-.888H24.727a.888.888,0,0,0-.888.888v1.775l-3.213-3.072a1.819,1.819,0,0,0-2.459,0l-11.8,11.29a.9.9,0,0,0-.074,1.241.888.888,0,0,0,1.286.059l11.512-11a.444.444,0,0,1,.614,0l11.513,11A.888.888,0,0,0,32.47,25.2.91.91,0,0,0,32.428,23.93Z" transform="translate(-6.08 -12.16)" fill="#545454"/>
</svg>
