<svg xmlns="http://www.w3.org/2000/svg" width="25.695" height="25.695" viewBox="0 0 25.695 25.695">
  <g id="DISEÑO" transform="translate(-328.296 -799)">
    <rect id="Rectángulo_259" data-name="Rectángulo 259" width="19" height="18" rx="2" transform="translate(334.276 806.136)" fill="#707070"/>
    <g id="wacom" transform="translate(328.296 799)">
      <path id="Trazado_238" data-name="Trazado 238" d="M25.193,2.986,21.73,6.449h.728A3.213,3.213,0,0,1,25.67,9.661V22.483A3.213,3.213,0,0,1,22.458,25.7H3.212a3.1,3.1,0,0,1-2.271-.941A3.1,3.1,0,0,1,0,22.483V9.661A3.1,3.1,0,0,1,.941,7.39a3.1,3.1,0,0,1,2.271-.941H16.787L22.709.5A1.742,1.742,0,0,1,23.951,0a1.678,1.678,0,0,1,1.23.514,1.678,1.678,0,0,1,.514,1.23A1.742,1.742,0,0,1,25.193,2.986ZM4.818,8.858a.76.76,0,0,0-.238-.577.793.793,0,0,0-.565-.226H2.409a.793.793,0,0,0-.565.226.76.76,0,0,0-.238.577v4.818a.731.731,0,0,0,.238.552.793.793,0,0,0,.565.226H4.015a.793.793,0,0,0,.565-.226.731.731,0,0,0,.238-.552Zm0,9.611a.814.814,0,0,0-.8-.8H2.409a.772.772,0,0,0-.565.238.772.772,0,0,0-.238.565v4.818a.772.772,0,0,0,.238.565.772.772,0,0,0,.565.238H4.015a.814.814,0,0,0,.8-.8ZM8.03,8.055A1.585,1.585,0,0,0,6.424,9.661V22.483A1.585,1.585,0,0,0,8.03,24.089H22.458a1.564,1.564,0,0,0,1.129-.464,1.531,1.531,0,0,0,.477-1.142V9.661a1.585,1.585,0,0,0-1.606-1.606H20.124l-7.177,7.151a2.621,2.621,0,0,1-1.129.527,8.035,8.035,0,0,1-1.506.276l-.7.075q.025-.3.075-.765a11.1,11.1,0,0,1,.276-1.368,2.717,2.717,0,0,1,.527-1.2l4.692-4.692Z" transform="translate(0 0)" fill="#545454"/>
    </g>
  </g>
</svg>
