<svg xmlns="http://www.w3.org/2000/svg" width="22.11" height="24.052" viewBox="0 0 22.11 24.052">
  <path id="GAS" d="M2.427,24.052v-2.1H19.683v2.1Zm0-2.611a2.577,2.577,0,0,1-1.655-.795A2.783,2.783,0,0,1,0,18.714V6.76A2.785,2.785,0,0,1,.773,4.827a2.57,2.57,0,0,1,1.857-.8H4.158V2.181H3.474a1.021,1.021,0,0,1-.739-.32,1.118,1.118,0,0,1,0-1.54A1.025,1.025,0,0,1,3.474,0H18.637a1.028,1.028,0,0,1,.74.32,1.118,1.118,0,0,1,0,1.54,1.025,1.025,0,0,1-.74.32h-.683V4.024h1.528a2.568,2.568,0,0,1,1.856.8A2.781,2.781,0,0,1,22.11,6.76V18.714a2.78,2.78,0,0,1-.773,1.932,2.572,2.572,0,0,1-1.654.795ZM17.954,4.024h0Zm-6.536,0h5.8V2.181H4.886V4.024h5.8v-.4h-.612a.38.38,0,0,1,0-.76h1.953a.38.38,0,0,1,0,.76h-.613Zm-8-2.986a.073.073,0,0,0-.022.054.079.079,0,0,0,.022.054.07.07,0,0,0,.052.023H18.636a.076.076,0,0,0,.073-.076.084.084,0,0,0-.022-.054.069.069,0,0,0-.052-.023H3.473A.075.075,0,0,0,3.421,1.038Z" fill="#545454"/>
</svg>
