<svg xmlns="http://www.w3.org/2000/svg" width="23.501" height="26.086" viewBox="0 0 23.501 26.086">
  <path id="JARDIN" d="M23.92,969.029c-.4,0-.47.912-.47,1.63v3.261c0,3.312,3.133,4.993,6.267,4.891v13.043c-1.567-3.261-6.267-8.152-10.967-6.522,0,0,3.917,9.782,11.75,9.782s11.75-9.782,11.75-9.782c-4.7-1.63-9.4,3.261-10.967,6.522V978.811c3.134.1,6.267-1.58,6.267-4.891v-3.261c0-.718-.073-1.63-.47-1.63-.3,0-.667.368-1.1.815l-2.35,2.445-2.35-2.751c-.245-.287-.387-.509-.783-.509s-.538.222-.783.509l-2.35,2.751-2.35-2.445C24.587,969.4,24.222,969.029,23.92,969.029Z" transform="translate(-18.75 -969.029)" fill="#545454"/>
</svg>
