<svg id="MECANICO" xmlns="http://www.w3.org/2000/svg" width="26.025" height="26.025" viewBox="0 0 26.025 26.025">
  <path id="Trazado_234" data-name="Trazado 234" d="M40.427,30.515l-1.78-5.34a3.9,3.9,0,0,0-3.7-2.669H23.08a3.9,3.9,0,0,0-3.7,2.669l-1.78,5.34a2.6,2.6,0,0,0-1.6,2.4v3.9a2.592,2.592,0,0,0,1.3,2.242v1.662a1.3,1.3,0,0,0,1.3,1.3h1.3a1.3,1.3,0,0,0,1.3-1.3v-1.3H36.82v1.3a1.3,1.3,0,0,0,1.3,1.3h1.3a1.3,1.3,0,0,0,1.3-1.3V39.062a2.589,2.589,0,0,0,1.3-2.242v-3.9A2.6,2.6,0,0,0,40.427,30.515ZM23.08,25.109H34.943a1.3,1.3,0,0,1,1.235.89l1.439,4.315H20.407L21.845,26A1.3,1.3,0,0,1,23.08,25.109ZM20.554,36.82a1.953,1.953,0,1,1,1.953-1.952A1.953,1.953,0,0,1,20.554,36.82Zm16.916,0a1.953,1.953,0,1,1,1.953-1.952A1.953,1.953,0,0,1,37.471,36.82ZM20.264,19.9a2.582,2.582,0,0,0,4.484,0h8.53a2.581,2.581,0,0,0,4.483,0H35.519V17.3h2.242a2.582,2.582,0,0,0-4.484,0H24.748a2.582,2.582,0,0,0-4.484,0h2.242v2.6Z" transform="translate(-16 -16)" fill="#545454"/>
</svg>
