<svg id="NIÑERA" xmlns="http://www.w3.org/2000/svg" width="22.567" height="30.05" viewBox="0 0 22.567 30.05">
  <path id="Trazado_229" data-name="Trazado 229" d="M22.053,18.268a1.681,1.681,0,0,1-1.233.514,1.706,1.706,0,0,1-1.247-.528L15.054,13.7v5.077H7.542V13.7L2.993,18.253a1.706,1.706,0,0,1-1.247.528,1.681,1.681,0,0,1-1.233-.514A1.7,1.7,0,0,1,0,17.021a1.674,1.674,0,0,1,.5-1.233l4.226-4.519Q6.6,9.391,11.3,9.391t6.573,1.878l4.2,4.519a1.674,1.674,0,0,1,.5,1.233A1.7,1.7,0,0,1,22.053,18.268ZM11.283,7.513a3.636,3.636,0,0,1-2.67-1.1,3.619,3.619,0,0,1-1.1-2.656A3.619,3.619,0,0,1,8.613,1.1,3.636,3.636,0,0,1,11.283,0a3.636,3.636,0,0,1,2.67,1.1,3.619,3.619,0,0,1,1.1,2.656,3.619,3.619,0,0,1-1.1,2.656A3.636,3.636,0,0,1,11.283,7.513ZM2.406,23.036q.088-.059.381-.235l3.463-2.935,3.668,2.641L6.632,24.68l2.23,2.26a1.739,1.739,0,0,1,.528,1.277,1.788,1.788,0,0,1-.528,1.291,1.733,1.733,0,0,1-1.291.543,1.756,1.756,0,0,1-1.291-.528L2.406,25.648a1.878,1.878,0,0,1,0-2.612Zm11.3,3.9,2.23-2.26-3.287-2.172,3.668-2.641L19.779,22.8q.293.176.381.235a1.878,1.878,0,0,1,0,2.612l-3.874,3.874A1.826,1.826,0,0,1,13.7,26.939Z" transform="translate(0 0)" fill="#545454"/>
</svg>
