<svg id="OTROS" xmlns="http://www.w3.org/2000/svg" width="19.295" height="26.726" viewBox="0 0 19.295 26.726">
  <path id="Trazado_237" data-name="Trazado 237" d="M12.683,20.88v5.011a.856.856,0,0,1-.835.835H6.836A.856.856,0,0,1,6,25.891V20.88a.856.856,0,0,1,.835-.835h5.011a.856.856,0,0,1,.835.835Zm6.6-12.528a7.05,7.05,0,0,1-1.054,3.706A6.008,6.008,0,0,1,17.078,13.3a10.614,10.614,0,0,1-1.2.908q-.459.282-1.274.741a4.093,4.093,0,0,0-1.43,1.357,2.843,2.843,0,0,0-.574,1.4,1.093,1.093,0,0,1-.251.679.728.728,0,0,1-.585.324H6.753a.628.628,0,0,1-.532-.386A1.571,1.571,0,0,1,6,17.539V16.6a4.865,4.865,0,0,1,1.357-3.268,8.82,8.82,0,0,1,2.986-2.265A5.146,5.146,0,0,0,12.1,9.9,2.345,2.345,0,0,0,12.62,8.31a1.887,1.887,0,0,0-.971-1.545A3.863,3.863,0,0,0,9.4,6.1,3.946,3.946,0,0,0,7.149,6.7,14.232,14.232,0,0,0,4.915,9.1a.811.811,0,0,1-.647.334,1,1,0,0,1-.522-.167L.322,6.661A.811.811,0,0,1,0,6.139a.823.823,0,0,1,.115-.585A10.665,10.665,0,0,1,9.8,0a9.352,9.352,0,0,1,3.362.647A11.321,11.321,0,0,1,16.211,2.38a8.66,8.66,0,0,1,2.213,2.662A6.839,6.839,0,0,1,19.281,8.352Z" transform="translate(0.014)" fill="#545454"/>
</svg>
