<svg xmlns="http://www.w3.org/2000/svg" width="28.317" height="24.166" viewBox="0 0 28.317 24.166">
  <path id="PLOMERIA" d="M7.573,49.6a1.993,1.993,0,0,1-.555-1.4,1.941,1.941,0,0,1,1.9-1.976H19.825a1.977,1.977,0,0,1,0,3.951H16.7v2.538a8.758,8.758,0,0,0-4.661,0V50.181H8.917A1.843,1.843,0,0,1,7.573,49.6Zm6.8,9.354A3.048,3.048,0,1,0,17.3,62,2.992,2.992,0,0,0,14.372,58.955Zm6.51-1.915h2.156v9.923H20.876a7.874,7.874,0,0,1-13.005,0H5.707V57.04H7.865a7.885,7.885,0,0,1,13.017,0ZM18.455,62a4.173,4.173,0,0,0-4.083-4.249,4.252,4.252,0,0,0,0,8.5A4.173,4.173,0,0,0,18.455,62ZM2.814,55.272H1.948A1.774,1.774,0,0,0,.214,57.079v9.845A1.774,1.774,0,0,0,1.948,68.73h.867a1.776,1.776,0,0,0,1.737-1.807V57.079A1.776,1.776,0,0,0,2.814,55.272Zm23.98,0H25.93a1.775,1.775,0,0,0-1.737,1.807v9.845A1.775,1.775,0,0,0,25.93,68.73h.864a1.776,1.776,0,0,0,1.737-1.807V57.079A1.776,1.776,0,0,0,26.794,55.272Z" transform="translate(-0.214 -46.23)" fill="#545454"/>
</svg>
