<svg id="TECNOLOGIA" xmlns="http://www.w3.org/2000/svg" width="17.433" height="29.054" viewBox="0 0 17.433 29.054">
  <path id="Trazado_232" data-name="Trazado 232" d="M10.532,26.149a1.821,1.821,0,0,0-1.816-1.816A1.816,1.816,0,1,0,10,27.431,1.749,1.749,0,0,0,10.532,26.149Zm4.721-3.632V6.537a.736.736,0,0,0-.726-.726H2.905a.736.736,0,0,0-.726.726v15.98a.736.736,0,0,0,.726.726H14.527a.736.736,0,0,0,.726-.726ZM10.9,3.269a.321.321,0,0,0-.363-.363H6.9a.321.321,0,0,0-.363.363.321.321,0,0,0,.363.363h3.632A.321.321,0,0,0,10.9,3.269Zm6.537-.363V26.149a2.946,2.946,0,0,1-2.905,2.905H2.905a2.792,2.792,0,0,1-2.043-.863A2.792,2.792,0,0,1,0,26.149V2.905A2.792,2.792,0,0,1,.863.863,2.792,2.792,0,0,1,2.905,0H14.527A2.792,2.792,0,0,1,16.57.863,2.792,2.792,0,0,1,17.433,2.905Z" fill="#545454"/>
</svg>
