<svg xmlns="http://www.w3.org/2000/svg" xmlns:xlink="http://www.w3.org/1999/xlink" width="30" height="30" viewBox="0 0 30 30">
  <defs>
    <clipPath id="clip-path">
      <rect width="30" height="30" fill="none"/>
    </clipPath>
  </defs>
  <g id="ICO-ENGRANE" clip-path="url(#clip-path)">
    <g id="Componente">
      <rect id="Rect치ngulo_218" data-name="Rect치ngulo 218" width="30" height="30" fill="none"/>
      <g id="Grupo_381" data-name="Grupo 381" transform="translate(-614 -734)">
        <g id="Elipse_77" data-name="Elipse 77" transform="translate(622 742)" fill="none" stroke="#545454" stroke-width="1">
          <circle cx="7" cy="7" r="7" stroke="none"/>
          <circle cx="7" cy="7" r="6.5" fill="none"/>
        </g>
        <g id="Uni칩n_1" data-name="Uni칩n 1" transform="translate(617 737)" fill="none">
          <path d="M9,24V22.586a10.932,10.932,0,0,1-2.364-.98l-1,1L1.393,18.364l1-1A10.93,10.93,0,0,1,1.414,15H0V9H1.414a10.937,10.937,0,0,1,.98-2.364l-1-1L5.636,1.393l1,1A10.937,10.937,0,0,1,9,1.414V0h6V1.414a10.93,10.93,0,0,1,2.363.98l1-1,4.243,4.243-1,1A10.932,10.932,0,0,1,22.586,9H24v6H22.586a10.933,10.933,0,0,1-.98,2.363l1,1-4.243,4.243-1-1a10.933,10.933,0,0,1-2.363.98V24Z" stroke="none"/>
          <path d="M 14.00030040740967 23.00030136108398 L 14.00030040740967 21.8297004699707 L 14.72810077667236 21.62382125854492 C 15.47413063049316 21.41278076171875 16.19651985168457 21.11322021484375 16.87520980834961 20.73344993591309 L 17.53556060791016 20.36394119262695 L 18.36359977722168 21.19198036193848 L 21.19198036193848 18.36359977722168 L 20.36394119262695 17.53556060791016 L 20.73344993591309 16.87520980834961 C 21.11322021484375 16.19651985168457 21.41278076171875 15.47413063049316 21.62382125854492 14.72810077667236 L 21.8297004699707 14.00030040740967 L 23.00030136108398 14.00030040740967 L 23.00030136108398 10.00000095367432 L 21.8299503326416 10.00000095367432 L 21.62406158447266 9.272211074829102 C 21.41279029846191 8.525390625 21.11314010620117 7.802750587463379 20.73344039916992 7.12436056137085 L 20.36381149291992 6.463980674743652 L 21.19198036193848 5.635800838470459 L 18.36359977722168 2.80742073059082 L 17.53516006469727 3.635850667953491 L 16.87483024597168 3.26641058921814 C 16.19643020629883 2.886860609054565 15.47418022155762 2.587420701980591 14.72813034057617 2.376400709152222 L 14.00030040740967 2.170540571212769 L 14.00030040740967 1.000000715255737 L 10.00000095367432 1.000000715255737 L 10.00000095367432 2.17029070854187 L 9.272180557250977 2.376160621643066 C 8.525630950927734 2.587320566177368 7.803110599517822 2.886860609054565 7.124660491943359 3.266460657119751 L 6.464320659637451 3.635940790176392 L 5.635800838470459 2.80742073059082 L 2.80742073059082 5.635800838470459 L 3.635940790176392 6.464320659637451 L 3.266460657119751 7.124660491943359 C 2.886860609054565 7.803110599517822 2.587320566177368 8.525630950927734 2.376160621643066 9.272180557250977 L 2.17029070854187 10.00000095367432 L 1.000000715255737 10.00000095367432 L 1.000000715255737 14.00030040740967 L 2.170540571212769 14.00030040740967 L 2.376400709152222 14.72813034057617 C 2.587420701980591 15.47418022155762 2.886860609054565 16.19643020629883 3.26641058921814 16.87483024597168 L 3.635850667953491 17.53516006469727 L 2.80742073059082 18.36359977722168 L 5.635800838470459 21.19198036193848 L 6.463980674743652 20.36381149291992 L 7.12436056137085 20.73344039916992 C 7.802750587463379 21.11314010620117 8.525390625 21.41279029846191 9.272211074829102 21.62406158447266 L 10.00000095367432 21.8299503326416 L 10.00000095367432 23.00030136108398 L 14.00030040740967 23.00030136108398 M 15.00030040740967 24.00030136108398 L 9.000000953674316 24.00030136108398 L 9.000000953674316 22.58629989624023 C 8.167680740356445 22.3508415222168 7.375470638275146 22.01996994018555 6.635950565338135 21.60605049133301 L 5.635800838470459 22.606201171875 L 1.393200635910034 18.36359977722168 L 2.393710613250732 17.36309051513672 C 1.980080723762512 16.62378120422363 1.649480700492859 15.83231067657471 1.414150714874268 15.00030040740967 L 6.805419729971618e-07 15.00030040740967 L 6.805419729971618e-07 9.000000953674316 L 1.413910627365112 9.000000953674316 C 1.649240732192993 8.168020248413086 1.980150699615479 7.375640869140625 2.393780708312988 6.636380672454834 L 1.393200635910034 5.635800838470459 L 5.635800838470459 1.393200635910034 L 6.636380672454834 2.393780708312988 C 7.375640869140625 1.980150699615479 8.168020248413086 1.649240732192993 9.000000953674316 1.413910627365112 L 9.000000953674316 6.805419729971618e-07 L 15.00030040740967 6.805419729971618e-07 L 15.00030040740967 1.414150714874268 C 15.83231067657471 1.649480700492859 16.62378120422363 1.980080723762512 17.36309051513672 2.393710613250732 L 18.36359977722168 1.393200635910034 L 22.606201171875 5.635800838470459 L 21.60605049133301 6.635950565338135 C 22.01996994018555 7.375470638275146 22.3508415222168 8.167680740356445 22.58629989624023 9.000000953674316 L 24.00030136108398 9.000000953674316 L 24.00030136108398 15.00030040740967 L 22.58606147766113 15.00030040740967 C 22.35070037841797 15.83231067657471 22.01981163024902 16.62421035766602 21.60612106323242 17.36352157592773 L 22.606201171875 18.36359977722168 L 18.36359977722168 22.606201171875 L 17.36352157592773 21.60612106323242 C 16.62421035766602 22.01981163024902 15.83231067657471 22.35070037841797 15.00030040740967 22.58606147766113 L 15.00030040740967 24.00030136108398 Z" stroke="none" fill="#545454"/>
        </g>
      </g>
    </g>
  </g>
</svg>
