<svg xmlns="http://www.w3.org/2000/svg" width="34.102" height="34.106" viewBox="0 0 34.102 34.106">
  <g id="ICO-_LLAVE" data-name="ICO- LLAVE" transform="translate(0.622 0.622)">
    <path id="Icon_ion-wrench" data-name="Icon ion-wrench" d="M29.471,7.5l-3.578,3.59L22.4,10.456l-.627-3.489,3.578-3.59a3.91,3.91,0,0,0-2.8-1.127,6.547,6.547,0,0,0-4.091,2.026A6.585,6.585,0,0,0,16.934,11.4a1.073,1.073,0,0,1-.184,1.342c-.513.507-13.614,12.842-13.614,12.842a2.878,2.878,0,0,0-.006,4.154,2.883,2.883,0,0,0,4.154-.019S19.517,16.687,20.119,16.1a1.037,1.037,0,0,1,1.342-.184c2.254,1.165,5.465.152,7.13-1.513a6.314,6.314,0,0,0,2.02-4.1A3.705,3.705,0,0,0,29.471,7.5ZM6,28.287A1.016,1.016,0,1,1,6,26.85,1.024,1.024,0,0,1,6,28.287Z" transform="matrix(0.174, -0.985, 0.985, 0.174, -2.602, 29.762)" fill="none" stroke="#545454" stroke-width="1.07"/>
  </g>
</svg>
